<svg width="40" height="40" fill="none" xmlns="http://www.w3.org/2000/svg"><path d="M0 0h40v36a4 4 0 0 1-4 4H0V0Z" fill="#F95149"/><path d="M26.73 12.98a4.336 4.336 0 0 0-3.2-1.37c-.923 0-1.769.287-2.514.853A5.099 5.099 0 0 0 20 13.507c-.3-.409-.64-.758-1.017-1.044a4.068 4.068 0 0 0-2.513-.854 4.336 4.336 0 0 0-3.2 1.37c-.82.874-1.27 2.067-1.27 3.36 0 1.33.504 2.549 1.587 3.833.968 1.15 2.36 2.316 3.972 3.667.55.462 1.175.985 1.822 1.542a.947.947 0 0 0 1.237 0c.648-.557 1.272-1.08 1.823-1.542 1.612-1.35 3.004-2.517 3.972-3.667C27.496 18.888 28 17.67 28 16.338c0-1.293-.45-2.485-1.27-3.359Z" fill="#fff"/></svg>