<svg width="46" height="46" fill="none" xmlns="http://www.w3.org/2000/svg"><g filter="url(#a)"><path d="M20.1 13.049c-.744.035-1.253.154-1.697.329-.46.179-.85.42-1.238.81a3.43 3.43 0 0 0-.806 1.24c-.172.445-.289.954-.322 1.7-.032.745-.04.985-.036 2.885.003 1.901.012 2.14.048 2.886.036.745.154 1.253.329 1.698.18.46.42.85.81 1.239a3.43 3.43 0 0 0 1.241.805c.445.172.954.289 1.7.322.745.032.984.04 2.885.036 1.9-.003 2.14-.012 2.886-.047.747-.036 1.253-.155 1.697-.329.46-.18.85-.42 1.239-.81.388-.39.627-.78.805-1.241.172-.445.29-.954.322-1.7.032-.746.04-.985.036-2.886-.003-1.9-.012-2.138-.047-2.885-.036-.746-.154-1.253-.329-1.698a3.44 3.44 0 0 0-.81-1.239 3.416 3.416 0 0 0-1.24-.804c-.446-.173-.955-.29-1.7-.322-.745-.033-.985-.04-2.886-.037-1.901.003-2.14.012-2.886.048Zm.083 12.654c-.683-.03-1.053-.143-1.3-.238a2.18 2.18 0 0 1-.806-.522 2.157 2.157 0 0 1-.526-.804c-.095-.247-.21-.617-.243-1.3-.035-.737-.042-.958-.046-2.827-.004-1.87.003-2.09.035-2.828.03-.682.144-1.053.238-1.3a2.17 2.17 0 0 1 .523-.806c.244-.246.477-.397.804-.525.246-.097.617-.211 1.299-.244.738-.034.96-.041 2.828-.045 1.868-.005 2.09.002 2.829.035.682.03 1.053.143 1.3.238.326.126.56.277.805.522.246.245.398.477.526.804.096.246.21.616.243 1.299.035.738.043.96.046 2.828.003 1.868-.003 2.09-.035 2.828-.03.682-.143 1.053-.238 1.3a2.17 2.17 0 0 1-.523.806 2.162 2.162 0 0 1-.804.525c-.246.096-.617.211-1.298.244-.739.034-.96.042-2.83.046-1.868.004-2.089-.004-2.827-.036m5.706-9.444a.84.84 0 1 0 1.68-.003.84.84 0 0 0-1.68.003Zm-6.483 3.748a3.594 3.594 0 1 0 7.188-.014 3.594 3.594 0 0 0-7.188.014Zm1.26-.003a2.333 2.333 0 1 1 4.667-.009 2.333 2.333 0 0 1-4.666.01Z" fill="#fff"/></g><defs><filter id="a" x="-7" y="-8" width="61" height="61" filterUnits="userSpaceOnUse" color-interpolation-filters="sRGB"><feFlood flood-opacity="0" result="BackgroundImageFix"/><feColorMatrix in="SourceAlpha" values="0 0 0 0 0 0 0 0 0 0 0 0 0 0 0 0 0 0 127 0" result="hardAlpha"/><feOffset dy="3"/><feGaussianBlur stdDeviation="8"/><feComposite in2="hardAlpha" operator="out"/><feColorMatrix values="0 0 0 0 0.164706 0 0 0 0 0.52549 0 0 0 0 0.898039 0 0 0 0.08 0"/><feBlend in2="BackgroundImageFix" result="effect1_dropShadow_1_4468"/><feBlend in="SourceGraphic" in2="effect1_dropShadow_1_4468" result="shape"/></filter></defs></svg>