<svg width="25" height="25" fill="none" xmlns="http://www.w3.org/2000/svg"><rect width="25" height="25" rx="12.5" fill="#183A5D"/><path fill-rule="evenodd" clip-rule="evenodd" d="M12.5 5.25c.262 0 .474.212.474.473v1.232a.473.473 0 0 1-.947 0V5.723c0-.261.212-.473.474-.473ZM7.374 7.373a.473.473 0 0 1 .67 0l.874.875a.473.473 0 1 1-.67.67l-.874-.876a.473.473 0 0 1 0-.67Zm10.256 0a.473.473 0 0 1 0 .67l-.875.874a.473.473 0 1 1-.67-.67l.876-.874a.473.473 0 0 1 .67 0Zm-7.103 2.173a3.554 3.554 0 1 1 3.95 5.91 3.554 3.554 0 0 1-3.95-5.91ZM5.25 12.5c0-.262.212-.473.473-.473h1.232a.473.473 0 1 1 0 .946H5.723a.473.473 0 0 1-.473-.473Zm12.322 0c0-.262.212-.473.474-.473h1.23a.473.473 0 1 1 0 .946h-1.23a.474.474 0 0 1-.474-.473Zm-8.655 3.584a.473.473 0 0 1 0 .67l-.875.874a.473.473 0 0 1-.67-.67l.876-.874a.473.473 0 0 1 .67 0Zm7.168 0a.473.473 0 0 1 .67 0l.874.875a.473.473 0 0 1-.67.67l-.874-.876a.473.473 0 0 1 0-.67ZM12.5 17.572c.261 0 .473.212.473.474v1.23a.474.474 0 0 1-.947 0v-1.23c0-.262.212-.474.474-.474Z" fill="#fff"/></svg>