<svg width="53" height="49" fill="none" xmlns="http://www.w3.org/2000/svg"><g filter="url(#a)"><path clip-rule="evenodd" d="M20.293 13.526a.529.529 0 0 1 .16-.372.54.54 0 0 1 .378-.154h11.338c.142 0 .277.055.378.154.1.098.157.232.158.372v2.893l3.935 1.047c.264.068.417.358.34.64l-2.367 8.743v2.619a.529.529 0 0 1-.158.376.54.54 0 0 1-.38.156H18.922a.54.54 0 0 1-.38-.156.529.529 0 0 1-.157-.376v-4.571l-2.351-6.39c-.101-.274.026-.575.282-.667l3.976-1.432v-2.882Zm8.162 1.762 3.515.935v-2.497H21.028v2.417l6.37-2.293c.257-.093.549.057.65.332l.407 1.106Zm6.002 2.471a.54.54 0 0 0-.38-.156h-4.77l-.545-1.482 7.458 1.985-1.607 5.931.002-5.902a.529.529 0 0 0-.158-.376Zm-17.665.682 1.593 4.33v-4.636c0-.108.034-.214.095-.302l-1.688.608Zm10.633-3.829 1.1 2.991H19.12l8.305-2.99Zm4.387 7.46a.24.24 0 0 1-.091.018h-4.535v-1.18h4.535a.24.24 0 0 1 .168.069c.045.044.07.104.07.167v.708a.234.234 0 0 1-.147.218Zm.077 4.435a.24.24 0 0 1-.168.069h-4.535v-1.18h4.535a.24.24 0 0 1 .168.068c.045.045.07.105.07.167v.71a.235.235 0 0 1-.07.166Zm.716-2.244a.24.24 0 0 1-.168.07h-5.25v-1.181h5.25a.24.24 0 0 1 .168.07.23.23 0 0 1 .07.166v.708a.235.235 0 0 1-.07.167Zm-6.734-.456c0-.18-.016-.359-.045-.536h-2.697v1.064h1.544c-.127.649-.703 1.119-1.543 1.119-.938 0-1.696-.785-1.696-1.712 0-.927.76-1.712 1.695-1.712.409-.006.803.146 1.099.425l.817-.808a2.767 2.767 0 0 0-1.916-.737 2.892 2.892 0 0 0-2.047.818 2.832 2.832 0 0 0-.851 2.015 2.807 2.807 0 0 0 .85 2.016 2.867 2.867 0 0 0 2.048.817c1.654 0 2.742-1.15 2.742-2.768Z"/></g><defs><filter id="a" x="-4" y="-5" width="61" height="61" filterUnits="userSpaceOnUse" color-interpolation-filters="sRGB"><feFlood flood-opacity="0" result="BackgroundImageFix"/><feColorMatrix in="SourceAlpha" values="0 0 0 0 0 0 0 0 0 0 0 0 0 0 0 0 0 0 127 0" result="hardAlpha"/><feOffset dy="3"/><feGaussianBlur stdDeviation="8"/><feComposite in2="hardAlpha" operator="out"/><feColorMatrix values="0 0 0 0 0.164706 0 0 0 0 0.52549 0 0 0 0 0.898039 0 0 0 0.08 0"/><feBlend in2="BackgroundImageFix" result="effect1_dropShadow_1_4472"/><feBlend in="SourceGraphic" in2="effect1_dropShadow_1_4472" result="shape"/></filter></defs></svg>