<svg width="40" height="40" fill="none" xmlns="http://www.w3.org/2000/svg"><path fill="#CD1C1F" d="M0 0h40v40H0z"/><g clip-path="url(#a)"><path d="M19.969 9.61C15.96 9.61 12 12.28 12 16.604c0 2.75 1.547 4.313 2.484 4.313.387 0 .61-1.078.61-1.383 0-.363-.926-1.137-.926-2.648 0-3.14 2.39-5.367 5.484-5.367 2.66 0 4.63 1.511 4.63 4.289 0 2.074-.833 5.964-3.528 5.964-.973 0-1.805-.703-1.805-1.71 0-1.477 1.031-2.907 1.031-4.43 0-2.586-3.668-2.117-3.668 1.008 0 .656.082 1.382.375 1.98-.539 2.32-1.64 5.777-1.64 8.168 0 .738.105 1.465.176 2.203.132.149.066.133.27.059 1.968-2.695 1.898-3.223 2.788-6.75.48.914 1.723 1.406 2.707 1.406 4.149 0 6.012-4.043 6.012-7.688 0-3.878-3.352-6.41-7.031-6.41Z" fill="#fff"/></g><defs><clipPath id="a"><path fill="#fff" transform="translate(10 9.61)" d="M0 0h20v20H0z"/></clipPath></defs></svg>