<svg width="40" height="40" fill="none" xmlns="http://www.w3.org/2000/svg"><path fill="#FC461E" d="M0 0h40v40H0z"/><path d="M27.465 17.559a2.08 2.08 0 0 0-1.48.62c-1.395-.964-3.274-1.585-5.356-1.652l1.082-4.875 3.445.774c0 .844.688 1.531 1.531 1.531.86 0 1.551-.707 1.551-1.55 0-.845-.687-1.552-1.55-1.552-.602 0-1.122.364-1.38.86l-3.804-.844c-.192-.05-.38.086-.43.277l-1.187 5.375c-2.067.086-3.926.707-5.325 1.672a2.076 2.076 0 0 0-1.5-.636c-2.171 0-2.882 2.914-.894 3.91-.07.308-.102.636-.102.965 0 3.273 3.688 5.925 8.215 5.925 4.547 0 8.235-2.652 8.235-5.925 0-.329-.036-.672-.122-.98 1.95-1 1.23-3.895-.93-3.895ZM15.32 21.676c0-.86.688-1.551 1.551-1.551.844 0 1.531.688 1.531 1.55 0 .845-.687 1.532-1.531 1.532a1.538 1.538 0 0 1-1.55-1.531Zm8.371 3.652c-1.422 1.422-5.433 1.422-6.855 0-.156-.137-.156-.379 0-.535a.376.376 0 0 1 .516 0c1.085 1.113 4.687 1.133 5.82 0a.375.375 0 0 1 .515 0c.16.156.16.398.004.535Zm-.031-2.117a1.534 1.534 0 0 1-1.531-1.531 1.54 1.54 0 1 1 1.531 1.53Z" fill="#fff"/></svg>