<svg width="40" height="40" fill="none" xmlns="http://www.w3.org/2000/svg"><path fill="#24A2E0" d="M0 0h40v40H0z"/><path fill-rule="evenodd" clip-rule="evenodd" d="M11.84 18.886a694.418 694.418 0 0 1 10.186-4.47C26.874 12.36 27.882 12 28.536 12c.136 0 .462.028.68.194.164.14.218.334.245.472.028.14.055.445.028.695-.273 2.804-1.39 9.662-1.989 12.8-.245 1.333-.735 1.777-1.198 1.833-1.008.083-1.797-.694-2.778-1.333-1.525-1.027-2.397-1.666-3.895-2.666-1.716-1.166-.599-1.805.382-2.832.245-.277 4.739-4.415 4.82-4.804 0-.055.028-.222-.081-.305-.11-.083-.245-.055-.354-.028-.164.028-2.615 1.694-7.381 4.97-.708.5-1.335.723-1.907.723-.626 0-1.825-.361-2.723-.667-1.09-.36-1.961-.555-1.88-1.166.082-.333.518-.667 1.335-1Z" fill="#fff"/></svg>