<svg width="47" height="44" fill="none" xmlns="http://www.w3.org/2000/svg"><g filter="url(#a)"><path d="M30.357 14.456c-.512.22-1.068.38-1.642.441a2.843 2.843 0 0 0 1.253-1.57 5.612 5.612 0 0 1-1.81.688 2.844 2.844 0 0 0-2.082-.9 2.85 2.85 0 0 0-2.852 2.85c0 .221.027.442.071.654a8.104 8.104 0 0 1-5.879-2.984 2.83 2.83 0 0 0-.388 1.439 2.85 2.85 0 0 0 1.271 2.374 2.873 2.873 0 0 1-1.289-.361v.035c0 1.386.98 2.533 2.287 2.798a3.014 3.014 0 0 1-.75.097c-.186 0-.363-.018-.54-.044a2.856 2.856 0 0 0 2.666 1.977 5.71 5.71 0 0 1-3.54 1.218 5.89 5.89 0 0 1-.688-.035 8.057 8.057 0 0 0 4.379 1.28c5.243 0 8.112-4.343 8.112-8.112 0-.124 0-.247-.01-.37a6.128 6.128 0 0 0 1.43-1.475Z" fill="#fff"/></g><defs><filter id="a" x="-7" y="-9" width="61" height="61" filterUnits="userSpaceOnUse" color-interpolation-filters="sRGB"><feFlood flood-opacity="0" result="BackgroundImageFix"/><feColorMatrix in="SourceAlpha" values="0 0 0 0 0 0 0 0 0 0 0 0 0 0 0 0 0 0 127 0" result="hardAlpha"/><feOffset dy="3"/><feGaussianBlur stdDeviation="8"/><feComposite in2="hardAlpha" operator="out"/><feColorMatrix values="0 0 0 0 0.164706 0 0 0 0 0.52549 0 0 0 0 0.898039 0 0 0 0.08 0"/><feBlend in2="BackgroundImageFix" result="effect1_dropShadow_1_4466"/><feBlend in="SourceGraphic" in2="effect1_dropShadow_1_4466" result="shape"/></filter></defs></svg>