<svg width="50" height="44" fill="none" xmlns="http://www.w3.org/2000/svg"><g filter="url(#a)"><path fill-rule="evenodd" clip-rule="evenodd" d="M31.21 13.358a2.143 2.143 0 0 1 1.51 1.516c.357 1.337.357 4.126.357 4.126s0 2.79-.357 4.126a2.143 2.143 0 0 1-1.51 1.516C29.88 25 24.538 25 24.538 25s-5.34 0-6.671-.358a2.143 2.143 0 0 1-1.51-1.516C16 21.79 16 19 16 19s0-2.79.357-4.126a2.143 2.143 0 0 1 1.51-1.516C19.198 13 24.538 13 24.538 13s5.34 0 6.672.358ZM27.253 19l-4.463 2.532v-5.064L27.253 19Z" fill="#fff"/></g><defs><filter id="a" x="-6" y="-9" width="61" height="61" filterUnits="userSpaceOnUse" color-interpolation-filters="sRGB"><feFlood flood-opacity="0" result="BackgroundImageFix"/><feColorMatrix in="SourceAlpha" values="0 0 0 0 0 0 0 0 0 0 0 0 0 0 0 0 0 0 127 0" result="hardAlpha"/><feOffset dy="3"/><feGaussianBlur stdDeviation="8"/><feComposite in2="hardAlpha" operator="out"/><feColorMatrix values="0 0 0 0 0.164706 0 0 0 0 0.52549 0 0 0 0 0.898039 0 0 0 0.08 0"/><feBlend in2="BackgroundImageFix" result="effect1_dropShadow_1_4470"/><feBlend in="SourceGraphic" in2="effect1_dropShadow_1_4470" result="shape"/></filter></defs></svg>